<svg width="21" height="20" viewBox="0 0 21 20" fill="none" xmlns="http://www.w3.org/2000/svg">
<path d="M12.79 10C12.79 11.1046 11.8964 12 10.7941 12C9.69183 12 8.79828 11.1046 8.79828 10C8.79828 8.89541 9.69183 8 10.7941 8C11.8964 8 12.79 8.89541 12.79 10Z" fill="white"/>
<path fill-rule="evenodd" clip-rule="evenodd" d="M15.5387 6.40301C15.4412 6.13819 15.2856 5.8985 15.0835 5.70175C14.8871 5.49917 14.6481 5.34326 14.3837 5.24553C14.1692 5.16207 13.8471 5.06272 13.2537 5.03565C12.6118 5.00632 12.4193 5 10.7942 5C9.16903 5 8.97657 5.00616 8.33483 5.03549C7.74144 5.06272 7.41911 5.16207 7.20482 5.24553C6.94039 5.34326 6.70119 5.49917 6.50502 5.70175C6.30285 5.8985 6.14727 6.13803 6.04959 6.40301C5.9663 6.61791 5.86715 6.94091 5.84015 7.53553C5.81087 8.17861 5.80457 8.37147 5.80457 10.0001C5.80457 11.6285 5.81087 11.8214 5.84015 12.4646C5.86715 13.0593 5.9663 13.3821 6.04959 13.597C6.14727 13.862 6.30269 14.1015 6.50485 14.2983C6.70119 14.5008 6.94023 14.6567 7.20466 14.7545C7.41911 14.8381 7.74144 14.9374 8.33483 14.9645C8.97657 14.9938 9.16887 15 10.7941 15C12.4195 15 12.6119 14.9938 13.2535 14.9645C13.8469 14.9374 14.1692 14.8381 14.3837 14.7545C14.9145 14.5493 15.334 14.1289 15.5387 13.597C15.622 13.3821 15.7212 13.0593 15.7484 12.4646C15.7776 11.8214 15.7838 11.6285 15.7838 10.0001C15.7838 8.37147 15.7776 8.17861 15.7484 7.53553C15.7213 6.94091 15.6222 6.61791 15.5387 6.40301ZM10.7942 13C9.14078 13 7.80041 11.657 7.80041 10C7.80041 8.34304 9.14078 7 10.7942 7C12.4476 7 13.7879 8.34304 13.7879 10C13.7879 11.657 12.4476 13 10.7942 13ZM12.79 6.5C12.79 6.77613 13.0134 7 13.289 7C13.5645 7 13.7878 6.77613 13.7879 6.5C13.7879 6.22387 13.5645 6 13.289 6C13.0134 6 12.79 6.22387 12.79 6.5Z" fill="#2D415E"/>
<path fill-rule="evenodd" clip-rule="evenodd" d="M0.814941 10C0.814941 4.478 5.28363 0 10.7941 0C16.3047 0 20.7734 4.478 20.7734 10C20.7734 15.522 16.3047 20 10.7941 20C5.28363 20 0.814941 15.522 0.814941 10ZM16.2235 13.7613C16.3651 13.396 16.4621 12.9787 16.4898 12.3674C16.5178 11.7551 16.5244 11.5594 16.5244 10C16.5244 8.44055 16.5178 8.24493 16.49 7.6326C16.4621 7.02133 16.3653 6.604 16.2235 6.23871C16.0798 5.85556 15.8541 5.50858 15.5627 5.22171C15.2764 4.9295 14.93 4.70337 14.5476 4.55917C14.1831 4.41742 13.7666 4.32037 13.1566 4.2926C12.5456 4.26453 12.3504 4.25781 10.7941 4.25781C9.23794 4.25781 9.04273 4.26453 8.43167 4.29245C7.82167 4.32037 7.40521 4.41742 7.04068 4.55933C6.65833 4.70352 6.31191 4.9295 6.02579 5.22171C5.7342 5.50842 5.50853 5.85556 5.36463 6.23871C5.22302 6.604 5.12618 7.02133 5.09847 7.6326C5.07045 8.24493 5.0639 8.44055 5.0639 10C5.0639 11.5594 5.07045 11.7551 5.09862 12.3676C5.12633 12.9787 5.22333 13.3961 5.36494 13.7613C5.50883 14.1444 5.73435 14.4916 6.02579 14.7783C6.31206 15.0705 6.65833 15.2965 7.04083 15.4407C7.40521 15.5826 7.82183 15.6796 8.43167 15.7076C9.04288 15.7355 9.23794 15.7422 10.7943 15.7422C12.3505 15.7422 12.5457 15.7355 13.1568 15.7076C13.7666 15.6796 14.1832 15.5826 14.5476 15.4407C15.3173 15.1424 15.9258 14.5326 16.2235 13.7613Z" fill="#2D415E"/>
</svg>
