<svg width="57" height="54" viewBox="0 0 57 54" fill="none" xmlns="http://www.w3.org/2000/svg">
<rect x="3" y="26.8701" width="38" height="38" rx="5" transform="rotate(-45 3 26.8701)" fill="#FFCD00"/>
<path fill-rule="evenodd" clip-rule="evenodd" d="M20.1666 17.0041C20.1666 22.5234 15.6881 27 10.1666 27C4.6451 27 0.166626 22.5151 0.166626 16.9959C0.166626 11.4766 4.6451 7 10.1666 7C15.6881 7 20.1666 11.4849 20.1666 17.0041ZM6.95471 19.9665C6.85537 20.2975 6.76431 20.6202 6.67325 20.9512C6.55735 21.3897 6.59875 21.4973 7.00437 21.6876C7.54245 21.9524 8.11365 22.0848 8.70139 22.1758C9.16497 22.2503 9.17325 22.2751 9.18153 22.7468C9.18981 22.9619 9.18981 23.1771 9.18981 23.3922C9.18981 23.6653 9.32226 23.8225 9.60371 23.8308C9.91828 23.8391 10.2411 23.8391 10.5557 23.8308C10.8206 23.8225 10.9531 23.6818 10.9531 23.417C10.9531 23.3174 10.9549 23.2188 10.9567 23.1204C10.9604 22.9246 10.9641 22.7299 10.9531 22.5317C10.9365 22.2338 11.0689 22.0848 11.3587 22.0021C12.0292 21.82 12.5921 21.4642 13.0309 20.9346C14.2395 19.47 13.7759 17.3186 12.0623 16.367C11.5393 16.0818 10.9935 15.8573 10.4539 15.6354C10.4299 15.6255 10.4059 15.6156 10.3819 15.6057C10.0507 15.4733 9.73616 15.3161 9.46298 15.0927C8.91663 14.6541 9.02424 13.9508 9.66166 13.6694C9.84378 13.5867 10.0259 13.5619 10.2246 13.5536C10.9696 13.5122 11.6732 13.6529 12.3438 13.9756C12.6749 14.1328 12.7825 14.0832 12.8984 13.7356C12.9936 13.4565 13.0742 13.1726 13.1551 12.8875C13.1798 12.8006 13.2044 12.7137 13.2295 12.6268C13.2958 12.3786 13.213 12.2131 12.9729 12.1055C12.5425 11.9152 12.1037 11.7828 11.6401 11.7083C11.0358 11.6173 11.0358 11.609 11.0358 11.005C11.0358 10.5747 11.0358 10.3596 10.9283 10.252C10.8207 10.1444 10.6054 10.1444 10.1749 10.1444H9.80239C9.40504 10.1609 9.33053 10.2271 9.32226 10.6326V11.1787C9.3141 11.7084 9.31398 11.7084 8.82384 11.8901L8.80073 11.8986C7.55901 12.3455 6.78914 13.1978 6.70636 14.5548C6.63186 15.7547 7.261 16.5739 8.2461 17.1614C8.67082 17.4138 9.1234 17.5946 9.57624 17.7756C9.77654 17.8556 9.97689 17.9356 10.1749 18.0219C10.4232 18.1295 10.6633 18.2619 10.8785 18.4357C11.4994 18.9487 11.3835 19.801 10.6468 20.1237C10.2577 20.2975 9.8355 20.3389 9.41331 20.2892C8.75106 20.2065 8.12192 20.0327 7.5259 19.7265C7.17822 19.5445 7.0706 19.5859 6.95471 19.9665Z" fill="#2D415E"/>
<path fill-rule="evenodd" clip-rule="evenodd" d="M31.3458 27.7711H32.533C33.4256 27.7711 34.1498 28.4958 34.1666 29.389V33.3746C34.1666 34.2678 33.4425 34.9925 32.5499 34.9925H31.43C30.7311 37.2676 29.3754 39.3068 27.5397 40.9415C27.5313 40.9499 27.5228 40.9562 27.5144 40.9625C27.506 40.9689 27.4976 40.9752 27.4892 40.9836L27.3123 41.1353C25.6619 42.6267 25.5103 44.371 25.5019 44.8092V46.1237C25.5019 46.6124 25.1062 47 24.6262 47H19.2876C18.7992 47 18.4118 46.604 18.4118 46.1237V44.8681C17.7971 44.9355 17.1824 44.9693 16.5509 44.9693C15.751 44.9693 14.9594 44.9103 14.1847 44.8092V46.1237C14.1847 46.6124 13.789 47 13.309 47H7.98724C7.52412 47 7.14519 46.6377 7.11151 46.1826V46.1742V46.1237V45.7276C7.06941 44.8007 6.78311 42.6604 5.10743 40.933C3.9454 39.7449 3.10334 38.2787 2.52233 37.0232C2.08446 36.1722 1.73922 35.2705 1.51187 34.3352C1.50345 34.3099 1.50345 34.2931 1.50345 34.2931C1.28451 33.3915 1.16663 32.4561 1.16663 31.4955C1.16663 29.7176 1.55397 28.0239 2.26971 26.4735C4.33274 28.0576 6.90942 29.0014 9.71345 29.0014C15.4815 29.0014 20.3233 24.9988 21.6201 19.6228C21.8053 18.856 22.2263 18.1651 22.8158 17.6511C23.6747 16.9011 24.9209 16.2355 26.7313 16.0079C27.5397 15.9068 28.0954 16.7916 27.666 17.4826C27.0513 18.4684 26.5208 19.8419 26.9502 21.3502C26.9671 21.4261 26.9839 21.5103 26.9839 21.5862C29.0301 23.2377 30.5626 25.3696 31.3458 27.7711ZM24.5504 26.7347C24.5504 27.4678 25.1398 28.0576 25.8724 28.0576C26.605 28.0576 27.1944 27.4678 27.1944 26.7347C27.1944 26.0016 26.605 25.4117 25.8724 25.4117C25.1398 25.4117 24.5504 26.0016 24.5504 26.7347Z" fill="#2D415E"/>
</svg>
